<svg width="50" height="50" viewBox="0 0 50 50" fill="none" xmlns="http://www.w3.org/2000/svg">
<path d="M25 32.8125C29.3147 32.8125 32.8125 29.3147 32.8125 25C32.8125 20.6853 29.3147 17.1875 25 17.1875C20.6853 17.1875 17.1875 20.6853 17.1875 25C17.1875 29.3147 20.6853 32.8125 25 32.8125Z" stroke="#059E82" stroke-width="3.5" stroke-linecap="round" stroke-linejoin="round"/>
<path d="M35.9375 40.625C32.9668 42.5996 28.834 43.75 25 43.75C21.2916 43.75 17.6665 42.6503 14.5831 40.5901C11.4996 38.5298 9.09641 35.6014 7.67727 32.1753C6.25812 28.7492 5.88681 24.9792 6.61028 21.3421C7.33376 17.7049 9.11952 14.364 11.7418 11.7418C14.364 9.11952 17.7049 7.33376 21.3421 6.61028C24.9792 5.88681 28.7492 6.25812 32.1753 7.67727C35.6014 9.09641 38.5298 11.4996 40.5901 14.5831C42.6503 17.6665 43.75 21.2916 43.75 25C43.75 29.3145 42.1875 32.8125 38.2813 32.8125C34.375 32.8125 32.8125 29.3145 32.8125 25V17.1875" stroke="#059E82" stroke-width="3.5" stroke-linecap="round" stroke-linejoin="round"/>
</svg>
