<svg width="50" height="50" viewBox="0 0 50 50" fill="none" xmlns="http://www.w3.org/2000/svg">
<path d="M42.1875 12.5H7.8125C6.94956 12.5 6.25 13.1996 6.25 14.0625V39.0625C6.25 39.9254 6.94956 40.625 7.8125 40.625H42.1875C43.0504 40.625 43.75 39.9254 43.75 39.0625V14.0625C43.75 13.1996 43.0504 12.5 42.1875 12.5Z" stroke="#059E82" stroke-width="3.5" stroke-linecap="round" stroke-linejoin="round"/>
<path d="M32.8125 12.5V9.375C32.8125 8.5462 32.4833 7.75134 31.8972 7.16529C31.3112 6.57924 30.5163 6.25 29.6875 6.25H20.3125C19.4837 6.25 18.6888 6.57924 18.1028 7.16529C17.5167 7.75134 17.1875 8.5462 17.1875 9.375V12.5" stroke="#059E82" stroke-width="3.5" stroke-linecap="round" stroke-linejoin="round"/>
<path d="M43.75 23.1074C38.0519 26.4043 31.5831 28.1354 25 28.125C18.4171 28.1355 11.9485 26.4051 6.25 23.1094" stroke="#059E82" stroke-width="3.5" stroke-linecap="round" stroke-linejoin="round"/>
<path d="M21.875 21.875H28.125" stroke="#059E82" stroke-width="3.5" stroke-linecap="round" stroke-linejoin="round"/>
</svg>
