<svg width="21" height="20" viewBox="0 0 21 20" fill="none" xmlns="http://www.w3.org/2000/svg">
<g clip-path="url(#clip0_2308_4162)">
<path d="M10.5 9.8125C10.6036 9.8125 10.6875 9.89645 10.6875 10C10.6875 10.1036 10.6036 10.1875 10.5 10.1875C10.3964 10.1875 10.3125 10.1036 10.3125 10C10.3125 9.89645 10.3964 9.8125 10.5 9.8125Z" fill="#D4FF66" stroke="#D4FF66" stroke-width="1.5"/>
<path d="M7.0625 9.8125C7.16605 9.8125 7.25 9.89645 7.25 10C7.25 10.1036 7.16605 10.1875 7.0625 10.1875C6.95895 10.1875 6.875 10.1036 6.875 10C6.875 9.89645 6.95895 9.8125 7.0625 9.8125Z" fill="#D4FF66" stroke="#D4FF66" stroke-width="1.5"/>
<path d="M13.9375 10.9375C14.4553 10.9375 14.875 10.5178 14.875 10C14.875 9.48223 14.4553 9.0625 13.9375 9.0625C13.4197 9.0625 13 9.48223 13 10C13 10.5178 13.4197 10.9375 13.9375 10.9375Z" fill="#D4FF66"/>
<path d="M4.02734 17.9773C3.93631 18.0539 3.82531 18.1029 3.70739 18.1186C3.58947 18.1343 3.46952 18.116 3.36164 18.0659C3.25376 18.0157 3.16242 17.9359 3.09836 17.8356C3.0343 17.7354 3.00018 17.619 3 17.5V5C3 4.83424 3.06585 4.67527 3.18306 4.55806C3.30027 4.44085 3.45924 4.375 3.625 4.375H17.375C17.5408 4.375 17.6997 4.44085 17.8169 4.55806C17.9342 4.67527 18 4.83424 18 5V15C18 15.1658 17.9342 15.3247 17.8169 15.4419C17.6997 15.5592 17.5408 15.625 17.375 15.625H6.75L4.02734 17.9773Z" stroke="#D4FF66" stroke-width="1.5" stroke-linecap="round" stroke-linejoin="round"/>
</g>
<defs>
<clipPath id="clip0_2308_4162">
<rect width="20" height="20" fill="white" transform="translate(0.5)"/>
</clipPath>
</defs>
</svg>
