<svg width="28" height="28" viewBox="0 0 28 28" fill="none" xmlns="http://www.w3.org/2000/svg">
<path d="M7 15.875C7.77907 15.875 8.52626 16.1845 9.07715 16.7354C9.62804 17.2862 9.9375 18.0334 9.9375 18.8125C9.9375 19.5916 9.62804 20.3388 9.07715 20.8896C8.59506 21.3717 7.9626 21.6686 7.29004 21.7354L7 21.75H6V22.75C6 23.1642 5.66421 23.5 5.25 23.5C4.83579 23.5 4.5 23.1642 4.5 22.75V16.625L4.50391 16.5479C4.54253 16.1699 4.86183 15.875 5.25 15.875H7ZM14 15.875C15.0111 15.875 15.9813 16.2762 16.6963 16.9912C17.4113 17.7062 17.8125 18.6764 17.8125 19.6875C17.8125 20.6986 17.4113 21.6688 16.6963 22.3838C15.9813 23.0988 15.0111 23.5 14 23.5H12.25C11.8358 23.5 11.5 23.1642 11.5 22.75V16.625L11.5039 16.5479C11.5425 16.1699 11.8618 15.875 12.25 15.875H14ZM23.625 15.875C24.0392 15.875 24.375 16.2108 24.375 16.625C24.375 17.0392 24.0392 17.375 23.625 17.375H20.875V19.375H22.75C23.1642 19.375 23.5 19.7108 23.5 20.125C23.5 20.5392 23.1642 20.875 22.75 20.875H20.875V22.75C20.875 23.1642 20.5392 23.5 20.125 23.5C19.7108 23.5 19.375 23.1642 19.375 22.75V16.625L19.3789 16.5479C19.4175 16.1699 19.7368 15.875 20.125 15.875H23.625ZM13 22H14C14.6133 22 15.2011 21.7559 15.6348 21.3223C16.0684 20.8886 16.3125 20.3008 16.3125 19.6875C16.3125 19.0742 16.0684 18.4864 15.6348 18.0527C15.2011 17.6191 14.6133 17.375 14 17.375H13V22ZM6 20.25H7L7.1416 20.2432C7.47086 20.2106 7.7806 20.0651 8.0166 19.8291C8.28619 19.5595 8.4375 19.1937 8.4375 18.8125C8.4375 18.4313 8.28619 18.0655 8.0166 17.7959C7.74702 17.5263 7.38125 17.375 7 17.375H6V20.25ZM16.625 2.75C16.6731 2.75 16.72 2.75502 16.7656 2.76367C16.7685 2.76422 16.7715 2.76406 16.7744 2.76465C16.7888 2.76756 16.8023 2.77363 16.8164 2.77734C16.8495 2.7861 16.8826 2.79447 16.9141 2.80762C16.9436 2.81994 16.9706 2.8367 16.998 2.85254C17.0126 2.8609 17.028 2.86761 17.042 2.87695C17.0704 2.89598 17.0956 2.91878 17.1211 2.94141C17.1321 2.95121 17.1448 2.95923 17.1553 2.96973L23.2803 9.09473C23.416 9.23045 23.5 9.41789 23.5 9.625V12.25C23.5 12.6642 23.1642 13 22.75 13C22.3358 13 22 12.6642 22 12.25V10.375H16.625C16.2108 10.375 15.875 10.0392 15.875 9.625V4.25H6.125C6.09185 4.25 6.05958 4.26269 6.03613 4.28613C6.01269 4.30958 6 4.34185 6 4.375V12.25C6 12.6642 5.66421 13 5.25 13C4.83579 13 4.5 12.6642 4.5 12.25V4.375C4.5 3.94402 4.67084 3.53033 4.97559 3.22559C5.28033 2.92084 5.69402 2.75 6.125 2.75H16.625ZM17.375 8.875H20.9395L17.375 5.31055V8.875Z" fill="#03011A"/>
</svg>
