<svg width="18" height="19" viewBox="0 0 18 19" fill="none" xmlns="http://www.w3.org/2000/svg">
<g clip-path="url(#clip0_2054_5118)">
<path d="M10.0814 1.75496C10.0121 1.69731 9.92988 1.65718 9.84177 1.63794C9.75367 1.61871 9.66224 1.62094 9.57518 1.64445C9.48812 1.66795 9.40798 1.71204 9.34153 1.77301C9.27508 1.83397 9.22426 1.91001 9.19336 1.99473L7.64648 6.24231L5.94773 4.59629C5.89068 4.54096 5.82256 4.49834 5.74784 4.47125C5.67313 4.44416 5.59352 4.43322 5.51426 4.43913C5.43501 4.44504 5.3579 4.46768 5.28803 4.50556C5.21816 4.54343 5.15711 4.59569 5.10891 4.65887C3.58594 6.65434 2.8125 8.66176 2.8125 10.6249C2.8125 12.2659 3.4644 13.8397 4.62478 15.0001C5.78516 16.1605 7.35897 16.8124 9 16.8124C10.641 16.8124 12.2148 16.1605 13.3752 15.0001C14.5356 13.8397 15.1875 12.2659 15.1875 10.6249C15.1875 6.44481 11.6163 3.03114 10.0814 1.75496Z" fill="currentColor"/>
</g>
<defs>
<clipPath id="clip0_2054_5118">
<rect width="18" height="18" fill="white" transform="translate(0 0.5)"/>
</clipPath>
</defs>
</svg>
