<svg width="18" height="19" viewBox="0 0 18 19" fill="none" xmlns="http://www.w3.org/2000/svg">
<g clip-path="url(#clip0_2054_3772)">
<path d="M12.4748 15.028L14.6953 10.1377C15.4033 9.54495 15.9118 8.74872 16.1517 7.85708C16.3917 6.96544 16.3516 6.02156 16.0369 5.1535C15.7221 4.28543 15.1479 3.53521 14.3922 3.00462C13.6365 2.47403 12.7359 2.18875 11.8125 2.1875C11.7814 2.18763 11.7504 2.19022 11.7197 2.19523L2.06508 3.80469C1.80242 3.84846 1.5638 3.98398 1.39167 4.18714C1.21953 4.3903 1.12504 4.64794 1.125 4.91422V8.46078C1.12504 8.72706 1.21953 8.9847 1.39167 9.18786C1.5638 9.39102 1.80242 9.52654 2.06508 9.57031L9 10.7263V14.5625C9 14.8609 9.11853 15.147 9.32951 15.358C9.54048 15.569 9.82663 15.6875 10.125 15.6875C10.125 16.4334 10.4213 17.1488 10.9488 17.6762C11.4762 18.2037 12.1916 18.5 12.9375 18.5H14.0625C14.2117 18.5 14.3548 18.4407 14.4602 18.3352C14.5657 18.2298 14.625 18.0867 14.625 17.9375C14.625 17.7883 14.5657 17.6452 14.4602 17.5398C14.3548 17.4343 14.2117 17.375 14.0625 17.375H12.9375C12.4899 17.375 12.0607 17.1972 11.7443 16.8807C11.4278 16.5643 11.25 16.1351 11.25 15.6875H11.4504C11.6665 15.6876 11.878 15.6254 12.0596 15.5084C12.2413 15.3915 12.3854 15.2247 12.4748 15.028ZM13.5 6.6875C13.5 7.02126 13.401 7.34752 13.2156 7.62502C13.0302 7.90253 12.7666 8.11882 12.4583 8.24655C12.1499 8.37427 11.8106 8.40769 11.4833 8.34258C11.1559 8.27746 10.8553 8.11674 10.6193 7.88074C10.3833 7.64474 10.2225 7.34406 10.1574 7.01671C10.0923 6.68937 10.1257 6.35007 10.2535 6.04172C10.3812 5.73337 10.5975 5.46982 10.875 5.2844C11.1525 5.09897 11.4787 5 11.8125 5C12.2601 5 12.6893 5.17779 13.0057 5.49426C13.3222 5.81072 13.5 6.23995 13.5 6.6875ZM11.7197 11.1798C11.7504 11.1848 11.7814 11.1874 11.8125 11.1875C12.2365 11.1874 12.6583 11.1273 13.0655 11.0089L11.4483 14.5625H10.125V10.914L11.7197 11.1798Z" fill="currentColor"/>
</g>
<defs>
<clipPath id="clip0_2054_3772">
<rect width="18" height="18" fill="white" transform="translate(0 0.5)"/>
</clipPath>
</defs>
</svg>
