<svg width="50" height="50" viewBox="0 0 50 50" fill="none" xmlns="http://www.w3.org/2000/svg">
<path d="M44.9863 28.3633C44.4049 27.9159 43.7281 27.6087 43.0087 27.4654C42.2892 27.3221 41.5463 27.3466 40.8379 27.5371L32.666 29.416C32.8561 28.6129 32.862 27.7771 32.6832 26.9714C32.5044 26.1657 32.1455 25.4108 31.6335 24.7635C31.1215 24.1162 30.4696 23.5932 29.7266 23.2337C28.9837 22.8741 28.1691 22.6874 27.3438 22.6875H17.5664C16.7453 22.6854 15.9319 22.8461 15.1733 23.1602C14.4147 23.4743 13.7258 23.9357 13.1465 24.5176L8.72852 28.9375H3.125C2.2962 28.9375 1.50134 29.2667 0.915291 29.8528C0.32924 30.4388 0 31.2337 0 32.0625L0 39.875C0 40.7038 0.32924 41.4987 0.915291 42.0847C1.50134 42.6708 2.2962 43 3.125 43H23.4375C23.5653 43.0001 23.6925 42.9843 23.8164 42.9531L36.3164 39.8281C36.3961 39.8092 36.4739 39.783 36.5488 39.75L44.1406 36.5195L44.2266 36.4805C44.9562 36.1159 45.581 35.5716 46.0421 34.8988C46.5032 34.226 46.7855 33.4468 46.8623 32.6348C46.939 31.8228 46.8078 31.0046 46.481 30.2573C46.1542 29.51 45.6425 28.8582 44.9941 28.3633H44.9863ZM3.125 32.0625H7.8125V39.875H3.125V32.0625ZM42.8574 33.666L35.4355 36.8262L23.2422 39.875H10.9375V31.1465L15.3574 26.7285C15.6466 26.4371 15.9907 26.206 16.37 26.0488C16.7492 25.8915 17.1559 25.8112 17.5664 25.8125H27.3438C27.9654 25.8125 28.5615 26.0594 29.001 26.499C29.4406 26.9385 29.6875 27.5347 29.6875 28.1563C29.6875 28.7779 29.4406 29.374 29.001 29.8135C28.5615 30.2531 27.9654 30.5 27.3438 30.5H21.875C21.4606 30.5 21.0632 30.6646 20.7701 30.9576C20.4771 31.2507 20.3125 31.6481 20.3125 32.0625C20.3125 32.4769 20.4771 32.8743 20.7701 33.1674C21.0632 33.4604 21.4606 33.625 21.875 33.625H28.125C28.2426 33.6247 28.3598 33.6116 28.4746 33.5859L41.5605 30.5762L41.6211 30.5605C42.0206 30.4496 42.4469 30.4904 42.8182 30.675C43.1894 30.8595 43.4793 31.1749 43.632 31.5603C43.7847 31.9457 43.7895 32.374 43.6454 32.7627C43.5013 33.1515 43.2186 33.4732 42.8516 33.666H42.8574ZM32.0312 19.5625C32.4173 19.5629 32.8027 19.5316 33.1836 19.4688C33.612 20.7413 34.3959 21.8646 35.4424 22.7058C36.489 23.5469 37.7546 24.0709 39.0895 24.2156C40.4244 24.3603 41.7728 24.1198 42.9754 23.5224C44.1779 22.9251 45.1843 21.9959 45.8754 20.8447C46.5666 19.6936 46.9138 18.3686 46.8758 17.0264C46.8378 15.6842 46.4163 14.3809 45.6611 13.2707C44.9059 12.1605 43.8486 11.2897 42.6142 10.7613C41.3798 10.2329 40.0199 10.0691 38.6953 10.2891C38.2828 9.06298 37.54 7.97447 36.5487 7.14332C35.5575 6.31216 34.3561 5.77059 33.0769 5.5782C31.7976 5.38581 30.4901 5.55005 29.2982 6.05286C28.1063 6.55567 27.0762 7.37755 26.3213 8.42806C25.5664 9.47856 25.1159 10.717 25.0195 12.007C24.923 13.297 25.1843 14.5886 25.7746 15.7397C26.3649 16.8908 27.2613 17.8567 28.3652 18.5312C29.4691 19.2057 30.7376 19.5625 32.0312 19.5625ZM43.75 17.2188C43.75 17.9913 43.5209 18.7466 43.0917 19.3889C42.6625 20.0313 42.0524 20.532 41.3386 20.8277C40.6248 21.1233 39.8394 21.2007 39.0817 21.0499C38.3239 20.8992 37.6279 20.5272 37.0816 19.9809C36.5353 19.4346 36.1633 18.7386 36.0126 17.9808C35.8618 17.2231 35.9392 16.4377 36.2348 15.7239C36.5305 15.0101 37.0312 14.4 37.6736 13.9708C38.3159 13.5416 39.0712 13.3125 39.8438 13.3125C40.8798 13.3125 41.8733 13.7241 42.6059 14.4566C43.3384 15.1892 43.75 16.1828 43.75 17.2188ZM32.0312 8.625C32.8834 8.62543 33.7121 8.90451 34.3909 9.41969C35.0696 9.93487 35.5614 10.6579 35.791 11.4785C34.9908 12.0416 34.3168 12.7655 33.8124 13.6039C33.3079 14.4424 32.984 15.3769 32.8613 16.3477C32.5885 16.4066 32.3103 16.4367 32.0312 16.4375C30.9952 16.4375 30.0017 16.026 29.2691 15.2934C28.5365 14.5608 28.125 13.5673 28.125 12.5313C28.125 11.4953 28.5365 10.5017 29.2691 9.76912C30.0017 9.03655 30.9952 8.625 32.0312 8.625Z" fill="#059E82"/>
</svg>
