<svg width="18" height="19" viewBox="0 0 18 19" fill="none" xmlns="http://www.w3.org/2000/svg">
<g clip-path="url(#clip0_2054_2606)">
<path d="M12.9375 7.30625V6.6875C12.9375 6.09076 12.7004 5.51847 12.2785 5.09651C11.8565 4.67455 11.2842 4.4375 10.6875 4.4375H9.5625V2.75H11.8125C11.9617 2.75 12.1048 2.80926 12.2102 2.91475C12.3157 3.02024 12.375 3.16332 12.375 3.3125C12.375 3.46168 12.4343 3.60476 12.5398 3.71025C12.6452 3.81574 12.7883 3.875 12.9375 3.875C13.0867 3.875 13.2298 3.81574 13.3352 3.71025C13.4407 3.60476 13.5 3.46168 13.5 3.3125C13.5 2.86495 13.3222 2.43572 13.0057 2.11926C12.6893 1.80279 12.2601 1.625 11.8125 1.625H7.3125C7.16332 1.625 7.02024 1.68426 6.91475 1.78975C6.80926 1.89524 6.75 2.03832 6.75 2.1875C6.75 2.33668 6.80926 2.47976 6.91475 2.58525C7.02024 2.69074 7.16332 2.75 7.3125 2.75H8.4375V4.4375H7.3125C6.71576 4.4375 6.14347 4.67455 5.72151 5.09651C5.29955 5.51847 5.0625 6.09076 5.0625 6.6875V7.30625C4.42766 7.43678 3.85723 7.7822 3.44737 8.28427C3.03751 8.78635 2.81329 9.41438 2.8125 10.0625V15.6875C2.8125 15.9859 2.93103 16.272 3.142 16.483C3.35298 16.694 3.63913 16.8125 3.9375 16.8125H14.0625C14.3609 16.8125 14.647 16.694 14.858 16.483C15.069 16.272 15.1875 15.9859 15.1875 15.6875V10.0625C15.1867 9.41438 14.9625 8.78635 14.5526 8.28427C14.1428 7.7822 13.5723 7.43678 12.9375 7.30625ZM7.3125 5.5625H10.6875C10.9859 5.5625 11.272 5.68103 11.483 5.89201C11.694 6.10298 11.8125 6.38913 11.8125 6.6875V7.25H6.1875V6.6875C6.1875 6.38913 6.30603 6.10298 6.51701 5.89201C6.72798 5.68103 7.01413 5.5625 7.3125 5.5625Z" fill="currentColor"/>
</g>
<defs>
<clipPath id="clip0_2054_2606">
<rect width="18" height="18" fill="white" transform="translate(0 0.5)"/>
</clipPath>
</defs>
</svg>
