<svg width="55" height="55" viewBox="0 0 55 55" fill="none" xmlns="http://www.w3.org/2000/svg">
<g clip-path="url(#clip0_155_4397)">
<path d="M10.2952 44.6127H3.43169C2.97661 44.6127 2.54018 44.4319 2.21839 44.1101C1.8966 43.7883 1.71582 43.3519 1.71582 42.8968V34.3174C1.71582 33.8624 1.8966 33.4259 2.21839 33.1041C2.54018 32.7823 2.97661 32.6016 3.43169 32.6016H10.2952" stroke="#059E82" stroke-width="3.5" stroke-linecap="round" stroke-linejoin="round"/>
<path d="M24.0224 34.3174H30.8859L45.2563 31.0122C45.7846 30.8674 46.3392 30.8464 46.877 30.9509C47.4148 31.0553 47.9212 31.2823 48.3569 31.6143C48.7927 31.9463 49.146 32.3743 49.3894 32.8651C49.6328 33.3559 49.7598 33.8961 49.7604 34.444C49.7607 35.1054 49.5766 35.7538 49.2288 36.3164C48.881 36.8791 48.3833 37.3336 47.7915 37.629L39.4652 41.1809L25.7382 44.6126H10.2954V32.6015L15.6575 27.2394C16.1368 26.7618 16.7055 26.3834 17.3312 26.1258C17.9568 25.8681 18.6271 25.7364 19.3037 25.7381H30.0279C31.1656 25.7381 32.2567 26.19 33.0612 26.9945C33.8657 27.7989 34.3176 28.89 34.3176 30.0277C34.3176 31.1654 33.8657 32.2565 33.0612 33.061C32.2567 33.8655 31.1656 34.3174 30.0279 34.3174H24.0224Z" stroke="#059E82" stroke-width="3.5" stroke-linecap="round" stroke-linejoin="round"/>
<path d="M20.747 25.738C18.6601 23.1042 17.1587 20.2816 17.1587 17.1587C17.1587 12.5065 20.9486 8.57931 25.6222 8.57931C27.2926 8.55971 28.9308 9.03915 30.327 9.95621C31.7232 10.8733 32.8139 12.1862 33.4595 13.7269C34.105 12.1862 35.1957 10.8733 36.5919 9.95621C37.9882 9.03915 39.6264 8.55971 41.2967 8.57931C45.9703 8.57931 49.7602 12.5065 49.7602 17.1587C49.7602 23.428 43.7161 28.9703 38.9889 32.4557" stroke="#059E82" stroke-width="3.5" stroke-linecap="round" stroke-linejoin="round"/>
</g>
<defs>
<clipPath id="clip0_155_4397">
<rect width="54.9079" height="54.9079" fill="white"/>
</clipPath>
</defs>
</svg>
