<svg width="50" height="50" viewBox="0 0 50 50" fill="none" xmlns="http://www.w3.org/2000/svg">
<path d="M43.6875 12.9199L26.5 3.51563C26.0408 3.26188 25.5247 3.12878 25 3.12878C24.4753 3.12878 23.9592 3.26188 23.5 3.51563L6.3125 12.9238C5.82166 13.1924 5.41192 13.5878 5.12608 14.0688C4.84023 14.5498 4.68877 15.0987 4.6875 15.6582V34.3379C4.68877 34.8974 4.84023 35.4463 5.12608 35.9273C5.41192 36.4083 5.82166 36.8037 6.3125 37.0723L23.5 46.4805C23.9592 46.7342 24.4753 46.8673 25 46.8673C25.5247 46.8673 26.0408 46.7342 26.5 46.4805L43.6875 37.0723C44.1783 36.8037 44.5881 36.4083 44.8739 35.9273C45.1598 35.4463 45.3112 34.8974 45.3125 34.3379V15.6602C45.3123 15.0997 45.1613 14.5495 44.8754 14.0674C44.5895 13.5853 44.1792 13.189 43.6875 12.9199ZM25 6.25L40.6914 14.8438L34.877 18.0273L19.1836 9.43359L25 6.25ZM25 23.4375L9.30859 14.8438L15.9297 11.2188L31.6211 19.8125L25 23.4375ZM7.8125 17.5781L23.4375 26.1289V42.8848L7.8125 34.3398V17.5781ZM42.1875 34.332L26.5625 42.8848V26.1367L32.8125 22.7168V29.6875C32.8125 30.1019 32.9771 30.4993 33.2701 30.7924C33.5632 31.0854 33.9606 31.25 34.375 31.25C34.7894 31.25 35.1868 31.0854 35.4799 30.7924C35.7729 30.4993 35.9375 30.1019 35.9375 29.6875V21.0059L42.1875 17.5781V34.3301V34.332Z" fill="#059E82"/>
</svg>
