<svg width="50" height="50" viewBox="0 0 50 50" fill="none" xmlns="http://www.w3.org/2000/svg">
<path d="M32.1074 28.3867C32.3238 28.2427 32.5727 28.155 32.8316 28.1315C33.0904 28.1079 33.351 28.1493 33.5898 28.252L42.8008 32.3789C43.1112 32.5116 43.3703 32.7412 43.5393 33.0334C43.7083 33.3257 43.7781 33.6648 43.7383 34C43.4348 36.2677 42.3181 38.348 40.5958 39.854C38.8735 41.36 36.6629 42.1893 34.375 42.1875C27.3302 42.1875 20.5739 39.389 15.5925 34.4075C10.611 29.4261 7.8125 22.6698 7.8125 15.625C7.81075 13.3371 8.64 11.1265 10.146 9.40417C11.652 7.68187 13.7323 6.56516 16 6.26172C16.3352 6.2219 16.6743 6.29171 16.9666 6.46071C17.2588 6.62971 17.4884 6.88881 17.6211 7.19922L21.748 16.418C21.8494 16.6547 21.8907 16.9129 21.8682 17.1695C21.8458 17.4261 21.7602 17.6731 21.6191 17.8887L17.4453 22.8516C17.2973 23.075 17.2097 23.333 17.1912 23.6003C17.1727 23.8677 17.2239 24.1353 17.3398 24.377C18.9551 27.6836 22.373 31.0605 25.6895 32.6602C25.9324 32.7756 26.2012 32.8256 26.4694 32.8054C26.7376 32.7852 26.9959 32.6954 27.2188 32.5449L32.1074 28.3867Z" stroke="#059E82" stroke-width="3.5" stroke-linecap="round" stroke-linejoin="round"/>
</svg>
