<svg width="18" height="19" viewBox="0 0 18 19" fill="none" xmlns="http://www.w3.org/2000/svg">
<g clip-path="url(#clip0_2054_5113)">
<path d="M9 2.1875C7.55373 2.1875 6.13993 2.61637 4.9374 3.41988C3.73486 4.22339 2.7976 5.36544 2.24413 6.70163C1.69067 8.03781 1.54586 9.50811 1.82801 10.9266C2.11017 12.3451 2.80661 13.648 3.82928 14.6707C4.85196 15.6934 6.15492 16.3898 7.57341 16.672C8.99189 16.9541 10.4622 16.8093 11.7984 16.2559C13.1346 15.7024 14.2766 14.7651 15.0801 13.5626C15.8836 12.3601 16.3125 10.9463 16.3125 9.5C16.3105 7.56123 15.5394 5.70246 14.1685 4.33154C12.7975 2.96063 10.9388 2.18955 9 2.1875ZM6.46875 7.25C6.63563 7.25 6.79876 7.29948 6.93752 7.3922C7.07627 7.48491 7.18442 7.61669 7.24828 7.77086C7.31214 7.92504 7.32885 8.09469 7.29629 8.25836C7.26373 8.42203 7.18338 8.57237 7.06537 8.69037C6.94737 8.80837 6.79703 8.88873 6.63336 8.92129C6.46969 8.95384 6.30004 8.93713 6.14586 8.87327C5.99169 8.80941 5.85991 8.70127 5.7672 8.56251C5.67449 8.42376 5.625 8.26063 5.625 8.09375C5.625 7.86997 5.7139 7.65536 5.87213 7.49713C6.03037 7.33889 6.24498 7.25 6.46875 7.25ZM12.2991 11.4688C11.5755 12.7196 10.3732 13.4375 9 13.4375C7.6268 13.4375 6.42446 12.7203 5.70094 11.4688C5.66024 11.4047 5.63291 11.3331 5.6206 11.2583C5.60829 11.1834 5.61125 11.1068 5.62929 11.0332C5.64734 10.9595 5.68011 10.8902 5.72563 10.8295C5.77114 10.7688 5.82846 10.718 5.89414 10.68C5.95982 10.642 6.03251 10.6177 6.10782 10.6086C6.18313 10.5994 6.25951 10.6056 6.33237 10.6268C6.40523 10.6479 6.47306 10.6836 6.53178 10.7316C6.5905 10.7796 6.6389 10.839 6.67407 10.9062C7.1993 11.814 8.02477 12.3125 9 12.3125C9.97524 12.3125 10.8007 11.8133 11.3259 10.9062C11.3611 10.839 11.4095 10.7796 11.4682 10.7316C11.5269 10.6836 11.5948 10.6479 11.6676 10.6268C11.7405 10.6056 11.8169 10.5994 11.8922 10.6086C11.9675 10.6177 12.0402 10.642 12.1059 10.68C12.1715 10.718 12.2289 10.7688 12.2744 10.8295C12.3199 10.8902 12.3527 10.9595 12.3707 11.0332C12.3888 11.1068 12.3917 11.1834 12.3794 11.2583C12.3671 11.3331 12.3398 11.4047 12.2991 11.4688ZM11.5313 8.9375C11.3644 8.9375 11.2012 8.88802 11.0625 8.7953C10.9237 8.70259 10.8156 8.57081 10.7517 8.41664C10.6879 8.26246 10.6712 8.09281 10.7037 7.92914C10.7363 7.76547 10.8166 7.61513 10.9346 7.49713C11.0526 7.37913 11.203 7.29877 11.3666 7.26621C11.5303 7.23366 11.7 7.25037 11.8541 7.31423C12.0083 7.37809 12.1401 7.48623 12.2328 7.62499C12.3255 7.76374 12.375 7.92687 12.375 8.09375C12.375 8.31753 12.2861 8.53214 12.1279 8.69037C11.9696 8.84861 11.755 8.9375 11.5313 8.9375Z" fill="currentColor"/>
</g>
<defs>
<clipPath id="clip0_2054_5113">
<rect width="18" height="18" fill="white" transform="translate(0 0.5)"/>
</clipPath>
</defs>
</svg>
