<svg width="20" height="20" viewBox="0 0 20 20" fill="none" xmlns="http://www.w3.org/2000/svg">
<path d="M3.125 4.375V14.375C3.125 14.7065 3.2567 15.0245 3.49112 15.2589C3.72554 15.4933 4.04348 15.625 4.375 15.625H16.875C17.0408 15.625 17.1997 15.5592 17.3169 15.4419C17.4342 15.3247 17.5 15.1658 17.5 15V6.25C17.5 6.08424 17.4342 5.92527 17.3169 5.80806C17.1997 5.69085 17.0408 5.625 16.875 5.625H4.375C4.04348 5.625 3.72554 5.4933 3.49112 5.25888C3.2567 5.02446 3.125 4.70652 3.125 4.375ZM3.125 4.375C3.125 4.04348 3.2567 3.72554 3.49112 3.49112C3.72554 3.2567 4.04348 3.125 4.375 3.125H15" stroke="#D4FF66" stroke-width="1.5" stroke-linecap="round" stroke-linejoin="round"/>
<path d="M14.0625 10.125C14.1661 10.125 14.25 10.2089 14.25 10.3125C14.25 10.4161 14.1661 10.5 14.0625 10.5C13.9589 10.5 13.875 10.4161 13.875 10.3125C13.875 10.2089 13.9589 10.125 14.0625 10.125Z" fill="#D4FF66" stroke="#D4FF66" stroke-width="1.5"/>
</svg>
