<svg width="21" height="20" viewBox="0 0 21 20" fill="none" xmlns="http://www.w3.org/2000/svg">
<path d="M3.625 4.375V14.375C3.625 14.7065 3.7567 15.0245 3.99112 15.2589C4.22554 15.4933 4.54348 15.625 4.875 15.625H17.375C17.5408 15.625 17.6997 15.5592 17.8169 15.4419C17.9342 15.3247 18 15.1658 18 15V6.25C18 6.08424 17.9342 5.92527 17.8169 5.80806C17.6997 5.69085 17.5408 5.625 17.375 5.625H4.875C4.54348 5.625 4.22554 5.4933 3.99112 5.25888C3.7567 5.02446 3.625 4.70652 3.625 4.375ZM3.625 4.375C3.625 4.04348 3.7567 3.72554 3.99112 3.49112C4.22554 3.2567 4.54348 3.125 4.875 3.125H15.5" stroke="currentColor" stroke-width="1.5" stroke-linecap="round" stroke-linejoin="round"/>
<path d="M14.5625 10.125C14.6661 10.125 14.75 10.2089 14.75 10.3125C14.75 10.4161 14.6661 10.5 14.5625 10.5C14.4589 10.5 14.375 10.4161 14.375 10.3125C14.375 10.2089 14.4589 10.125 14.5625 10.125Z" fill="currentColor stroke="#D4FF66" stroke-width="1.5"/>
</svg>
