<svg width="101" height="80" viewBox="0 0 101 80" fill="none" xmlns="http://www.w3.org/2000/svg">
<path d="M0.691417 60.7233V73.3H6.96735V74.0856H0V60.7233H0.691417Z" fill="black"/>
<path d="M11.1841 66.2299H10.4927V74.078H11.1841V66.2299Z" fill="black"/>
<path d="M23.0903 66.2299L18.919 74.4028L14.7173 66.2299H15.5303L18.919 72.8166L22.3077 66.2299H23.0903Z" fill="black"/>
<path d="M27.315 66.2299H26.6235V74.078H27.315V66.2299Z" fill="black"/>
<path d="M37.2834 66.2298C37.7393 66.4716 38.142 66.7662 38.4763 67.1438C38.8106 67.5215 39.0765 67.9747 39.2893 68.4884C39.4792 69.002 39.578 69.561 39.578 70.1577V74.0856H38.8866V70.1577C38.8866 69.6969 38.8182 69.2437 38.651 68.8132C38.4839 68.4128 38.2484 68.0352 37.9824 67.7103C37.6937 67.4158 37.3594 67.1438 37.0023 66.955C36.6224 66.7662 36.2121 66.6831 35.8094 66.6831C35.4067 66.6831 34.9964 66.7662 34.6393 66.955C34.2594 67.1438 33.9251 67.4158 33.6592 67.7103C33.3704 68.0352 33.1577 68.4128 32.9905 68.8132C32.8234 69.2437 32.7246 69.6969 32.7246 70.1577V74.0856H32.0332V66.2374H32.7246V67.6877C33.0817 67.1514 33.5148 66.7208 34.0619 66.396C34.5861 66.0712 35.1636 65.9126 35.8018 65.9126C36.3261 65.9126 36.8275 66.0183 37.2834 66.2374" fill="black"/>
<path d="M51.5978 75.7473C51.5978 76.3365 51.499 76.903 51.3091 77.4167C51.0963 77.9303 50.8304 78.3835 50.4961 78.7612C50.1618 79.1389 49.7591 79.4335 49.3032 79.645C48.8473 79.8867 48.3459 79.9925 47.8216 79.9925C47.2973 79.9925 46.7959 79.8867 46.34 79.645C45.8841 79.4335 45.4814 79.1314 45.1699 78.731L45.6486 78.1947C45.9373 78.4893 46.2716 78.731 46.6515 78.9199C47.0086 79.1087 47.4113 79.2144 47.8216 79.2144C48.2319 79.2144 48.6346 79.1087 49.0145 78.9199C49.3716 78.731 49.7059 78.4893 49.9946 78.1645C50.2606 77.8699 50.4961 77.4922 50.6633 77.0617C50.8304 76.6613 50.8988 76.2006 50.8988 75.7473V72.6277C50.5417 73.164 50.1086 73.5946 49.5843 73.9194C49.0373 74.2442 48.4598 74.4028 47.8216 74.4028C47.2973 74.4028 46.7959 74.2971 46.34 74.0553C45.8841 73.8438 45.4814 73.5417 45.1471 73.1716C44.8128 72.7939 44.5545 72.3407 44.3569 71.827C44.1442 71.3134 44.0454 70.7544 44.0454 70.1577C44.0454 69.561 44.1442 69.002 44.3569 68.4884C44.5469 67.9747 44.8128 67.5215 45.1471 67.1438C45.4814 66.7661 45.8841 66.4715 46.34 66.2298C46.7959 66.0183 47.2973 65.905 47.8216 65.905C48.4674 65.905 49.0373 66.0637 49.5843 66.3885C50.1086 66.7133 50.5417 67.1438 50.8988 67.6801V66.2298H51.5902V75.7473H51.5978ZM50.6709 68.8132C50.5037 68.4128 50.2682 68.0351 50.0022 67.7103C49.7135 67.4157 49.3792 67.1438 49.0221 66.955C48.6422 66.7661 48.2319 66.683 47.8292 66.683C47.4265 66.683 47.0162 66.7661 46.6591 66.955C46.2792 67.1438 45.9449 67.4157 45.679 67.7103C45.3903 68.0351 45.1775 68.4128 45.0104 68.8132C44.8432 69.2437 44.7444 69.6969 44.7444 70.1577C44.7444 70.6185 44.8356 71.0717 45.0104 71.472C45.1775 71.9026 45.3903 72.2803 45.679 72.5748C45.9449 72.8996 46.2792 73.1414 46.6591 73.3302C47.0162 73.519 47.4189 73.6021 47.8292 73.6021C48.2395 73.6021 48.6422 73.519 49.0221 73.3302C49.3792 73.1414 49.7135 72.8996 50.0022 72.5748C50.2682 72.2803 50.5037 71.9026 50.6709 71.472C50.838 71.0717 50.9064 70.6109 50.9064 70.1577C50.9064 69.7045 50.838 69.2437 50.6709 68.8132Z" fill="black"/>
<path d="M61.7642 61.4484V60.6402H69.157V61.4484H65.8139V74.0856H65.0997V61.4484H61.7642Z" fill="black"/>
<path d="M73.3811 66.2298V67.6801C73.7382 67.1438 74.1713 66.7133 74.7184 66.3885C75.2426 66.0637 75.8201 65.905 76.4583 65.905C76.9826 65.905 77.4841 66.0108 77.9399 66.2298C78.3958 66.4413 78.7757 66.7661 79.11 67.174L78.6313 67.7103C78.3426 67.4157 78.0083 67.1438 77.6512 66.955C77.2713 66.7661 76.861 66.683 76.4583 66.683C76.0556 66.683 75.6453 66.7661 75.2882 66.955C74.9083 67.1438 74.574 67.4157 74.3081 67.7103C74.0194 68.0351 73.8066 68.4128 73.6395 68.8132C73.4723 69.2437 73.3735 69.6969 73.3735 70.1577V74.0856H72.6821V66.2374H73.3735L73.3811 66.2298Z" fill="black"/>
<path d="M81.99 68.4884C82.1799 67.9747 82.4458 67.5215 82.7801 67.1438C83.1145 66.7661 83.5171 66.4715 83.973 66.2298C84.4289 66.0183 84.9304 65.905 85.4546 65.905C85.9789 65.905 86.4804 66.0108 86.9362 66.2298C87.3921 66.4715 87.7948 66.7661 88.1291 67.1438C88.4634 67.5215 88.7218 67.9747 88.9421 68.4884C89.1321 69.002 89.2308 69.561 89.2308 70.1577V70.3163C89.2308 70.3994 89.2308 70.4523 89.208 70.5278H82.4078C82.4534 70.9584 82.575 71.3587 82.7422 71.7364C82.9093 72.1141 83.1448 72.4389 83.4108 72.7033C83.6767 72.9752 83.9806 73.1867 84.3377 73.3453C84.6948 73.5039 85.0519 73.587 85.4622 73.587C85.8725 73.587 86.2752 73.5039 86.6551 73.3151C87.0122 73.1263 87.3465 72.8845 87.6353 72.5597L88.1367 73.1489C87.7796 73.5266 87.3997 73.8212 86.9438 74.0327C86.488 74.2744 85.9865 74.3802 85.4622 74.3802C84.938 74.3802 84.4365 74.2744 83.9806 74.0327C83.5247 73.8212 83.1221 73.519 82.7877 73.1489C82.4534 72.7712 82.1951 72.318 81.9975 71.8044C81.7848 71.2907 81.686 70.7318 81.686 70.135C81.686 69.5383 81.7848 68.9793 81.9975 68.4657M88.4786 69.7574C88.433 69.3268 88.3115 68.9265 88.1443 68.5488C87.9772 68.1711 87.7416 67.8463 87.4757 67.5819C87.2098 67.31 86.9059 67.0985 86.5487 66.9399C86.1916 66.7812 85.8345 66.6982 85.4546 66.6982C85.0747 66.6982 84.7176 66.7812 84.3605 66.9399C84.0034 67.0985 83.6919 67.3176 83.4336 67.5819C83.1448 67.8539 82.9093 68.1711 82.7422 68.5488C82.575 68.9265 82.4534 69.3268 82.4078 69.7574H88.4938H88.4786Z" fill="black"/>
<path d="M93.7741 68.4884C93.9641 67.9747 94.23 67.5215 94.5643 67.1438C94.8986 66.7661 95.3013 66.4715 95.7572 66.2298C96.2131 66.0183 96.7146 65.905 97.2388 65.905C97.7631 65.905 98.2645 66.0108 98.7204 66.2298C99.1763 66.4715 99.579 66.7661 99.9133 67.1438C100.248 67.5215 100.506 67.9747 100.726 68.4884C100.916 69.002 101.015 69.561 101.015 70.1577V70.3163C101.015 70.3994 101.015 70.4523 100.992 70.5278H94.192C94.2376 70.9584 94.3592 71.3587 94.5263 71.7364C94.6935 72.1141 94.929 72.4389 95.195 72.7033C95.4609 72.9752 95.7648 73.1867 96.1219 73.3453C96.479 73.5039 96.8361 73.587 97.2464 73.587C97.6567 73.587 98.0594 73.5039 98.4393 73.3151C98.7964 73.1263 99.1307 72.8845 99.4194 72.5597L99.9209 73.1489C99.5638 73.5266 99.1839 73.8212 98.728 74.0327C98.2721 74.2744 97.7707 74.3802 97.2464 74.3802C96.7222 74.3802 96.2207 74.2744 95.7648 74.0327C95.3089 73.8212 94.9062 73.519 94.5719 73.1489C94.2376 72.7712 93.9793 72.318 93.7817 71.8044C93.569 71.2907 93.4702 70.7318 93.4702 70.135C93.4702 69.5383 93.569 68.9793 93.7817 68.4657M100.263 69.7574C100.217 69.3268 100.096 68.9265 99.9285 68.5488C99.7614 68.1711 99.5258 67.8463 99.2599 67.5819C98.994 67.31 98.69 67.0985 98.3329 66.9399C97.9758 66.7812 97.6187 66.6982 97.2388 66.6982C96.8589 66.6982 96.5018 66.7812 96.1447 66.9399C95.7876 67.0985 95.4761 67.3176 95.2178 67.5819C94.929 67.8539 94.6935 68.1711 94.5263 68.5488C94.3592 68.9265 94.2376 69.3268 94.192 69.7574H100.278H100.263Z" fill="black"/>
<path fill-rule="evenodd" clip-rule="evenodd" d="M89.375 21.0443C89.3826 19.9868 87.4071 18.0908 86.3054 18.9822C85.0138 19.4278 85.0518 21.573 84.3147 22.6079C83.8285 23.2953 82.8027 23.5596 82.3241 24.2621H81.9138C81.8834 24.1715 81.853 24.0959 81.8226 24.0129C82.552 23.537 83.5853 22.0414 84.064 21.286C84.292 20.931 84.3755 20.508 84.6491 20.2058C84.6111 19.8962 84.5807 19.9037 84.4819 19.7073C83.6081 19.7073 82.8787 19.6771 82.0733 19.7073C81.7466 19.3598 81.4959 19.0879 81.2452 18.6347C80.9716 18.5818 80.6297 18.5441 80.2498 18.5516C79.7788 19.035 79.3001 19.5336 79.0038 20.1983C78.7454 20.8026 78.677 21.4069 78.3427 21.9281C77.978 22.3209 77.6209 22.6985 77.2562 23.0838C76.6788 23.0535 76.4584 22.8798 76.1013 22.6683C76.0481 22.5248 76.0861 22.5852 76.0101 22.5097C76.1241 21.0594 76.9523 20.6515 77.5905 19.7828C77.9628 19.2616 78.1984 18.7027 78.5783 18.2193C78.8366 17.8869 79.3229 17.6452 79.6648 17.3884C80.1359 17.0333 81.1236 16.0438 81.4883 15.5755C82.552 15.5604 82.7192 16.2931 83.6461 16.4895C84.8998 16.7539 87.0424 15.0921 87.6199 14.5104C87.825 14.3065 88.3645 13.8684 88.2885 13.4303C88.1517 12.7051 87.0956 12.9091 86.7157 12.4483C86.351 11.9951 86.4042 11.066 86.1307 10.5448C85.2493 10.6808 85.1277 11.3002 84.5579 11.7005C83.8817 12.1839 82.8711 12.6372 82.0657 12.9317C81.2528 13.2339 79.9991 13.0753 79.414 13.5965C79.0949 13.5965 78.7834 13.5889 78.5783 13.5134L78.4947 13.3472C79.8319 12.7127 81.1388 12.0329 82.3089 11.2095C82.8787 10.8092 83.289 10.2955 83.8893 9.8801C84.2844 9.60817 84.4515 9.05676 84.7934 8.73196C84.7934 8.33162 84.7478 8.21076 84.6339 7.9917C83.9348 7.9917 83.5322 8.00681 82.9699 7.9917C82.4001 7.41763 81.8378 6.96442 81.3971 6.26193C80.3334 6.32236 80.5613 7.29677 80.2346 8.07479C79.8091 9.09453 79.1785 9.5553 78.4111 10.22H78.0844C78.2819 9.46465 78.6163 8.67908 78.4111 7.65935C78.3427 7.32699 78.4719 6.89643 78.3275 6.66983C78.2819 6.2997 78.2136 6.32236 78.0768 6.09575C77.5753 6.0882 77.0131 6.05043 76.7396 6.26193L76.4888 6.42056C76.4888 6.99463 76.6256 7.90106 76.4052 8.32406C76.2609 8.60354 75.9038 8.87547 75.8278 9.23804C75.7138 9.70637 76.0785 10.1294 76.1545 10.4768C76.4052 11.5192 75.2579 13.385 74.6577 13.6871C73.3053 11.6023 73.518 8.85281 75.2352 7.25901C75.2048 7.01729 75.182 6.89643 75.0756 6.76047C74.9616 6.62451 75.0224 6.66227 74.8249 6.59429C74.1638 6.16374 73.5636 6.70004 73.1609 6.84356C73.0469 6.7227 72.895 6.60184 72.743 6.51876C72.7962 6.21661 72.9937 5.92958 72.9102 5.7785C72.8747 5.567 72.7658 5.42852 72.5835 5.36306C72.4391 5.29507 72.3251 5.32529 72.1656 5.4537C71.8541 5.67275 71.6869 6.43567 71.5045 6.76802C71.1778 6.82845 70.494 6.71515 70.0913 6.85111C69.795 6.94931 69.5823 7.26656 69.3467 7.42518C69.3543 8.61865 69.681 9.10208 69.9242 9.90276C69.9546 10.3711 69.9773 10.8394 70.0153 11.3077C70.0685 11.5041 70.2889 11.776 70.3421 11.9724V14.2838C70.6916 15.6435 71.1019 16.9654 71.5045 18.325C71.6641 18.8538 71.6565 19.526 71.8313 20.1379C72.1276 21.1652 72.4619 21.6712 71.9148 22.7816H71.8313V22.8647C70.1293 22.9705 69.7418 20.2436 69.0884 18.9897C68.4653 17.7811 67.7359 16.346 67.3484 14.941V12.2293C66.7786 9.77435 68.1158 6.7227 69.172 5.29507C69.7266 4.56238 71.4818 4.15448 72.2415 3.48221C72.158 2.76462 71.8768 2.53046 71.5805 2.07725C70.6536 1.99416 69.7114 2.04703 69.2555 2.65132C68.7541 2.606 68.7237 2.43982 68.4198 2.24343C68.4274 1.57871 68.4502 1.26146 68.4198 0.672282C68.2146 0.475889 68.1614 0.294603 67.8423 0.173746C67.5612 -0.0150941 66.885 1.31058e-05 66.4291 0.0151203C66.2163 0.173746 65.996 0.339924 65.7681 0.513657C65.4945 0.891336 65.4034 1.40498 65.0235 1.6618C64.7955 1.82043 64.4916 1.82798 64.2789 1.99416C63.124 1.94884 63.3443 1.11794 62.6149 0.755371C62.2654 0.581639 61.6955 0.71005 61.3688 0.506103C60.3811 0.49855 60.3279 0.800693 59.796 1.16326C59.7657 2.34918 59.7429 3.53509 59.7125 4.721C59.7125 5.2422 59.7961 5.91447 59.5453 6.2015V6.29215C59.0894 6.13352 59.059 5.83138 58.8767 5.37816C58.6184 4.7059 58.55 3.92032 58.55 2.90059V1.58627C58.4512 1.21614 58.1473 0.830907 57.9725 0.513657C57.775 0.49855 57.7446 0.49855 57.6458 0.423014C56.1794 0.41546 54.7054 0.256835 53.824 0.838461C53.8392 1.82798 53.9152 3.03655 54.4927 3.48221C55.0701 3.91277 55.8451 3.92788 56.2326 4.55482C57.1899 6.06554 57.3951 8.3996 57.3951 10.8243C57.3571 11.3984 57.3343 11.98 57.3039 12.5541C57.2127 12.8336 56.9924 13.0073 56.8936 13.2943H56.8024C56.7341 13.1961 56.7417 13.1961 56.6429 13.1281C56.6277 12.3577 56.4529 11.6476 56.3086 11.066V9.00388C56.1186 8.17299 55.9363 6.86622 55.4804 6.19395C55.1537 5.71808 54.3863 5.71052 53.9076 5.37061C53.0566 4.78143 52.464 3.452 51.9169 2.56823C51.0356 2.61355 49.4628 3.59552 49.0981 4.13182C47.7988 3.9883 46.4312 2.34918 45.0332 3.39157C44.7065 3.63329 44.6761 4.21491 44.4481 4.54727C44.5165 5.90691 45.6562 5.96734 46.4388 6.6094C46.7047 6.82845 46.8947 7.23635 47.1074 7.52338C47.3505 7.84063 47.7912 8.09745 48.0116 8.42226C48.3079 8.86792 48.2775 9.57796 48.6802 9.91031C48.6726 10.8092 48.2775 10.9527 47.852 11.3984C45.3295 11.2775 44.2886 8.70929 43.3692 6.94176C42.9133 6.07309 42.7006 5.12134 41.7964 4.721C39.9121 3.89011 35.209 5.16666 37.9822 6.94176C37.6327 7.46295 36.3867 8.30895 35.3989 8.09745C34.9886 8.00681 34.396 7.49317 33.9021 7.77265C32.9296 8.12767 34.1073 9.22294 34.4872 9.50242C35.756 10.4466 36.9261 11.0887 39.0536 10.4919C39.5854 10.3409 40.0489 10.3258 40.3756 9.9934C41.8648 9.98585 42.0927 11.0282 42.7006 11.8894C43.2021 12.5994 43.9087 13.3094 44.281 14.1177C44.7976 15.2507 44.942 16.6859 45.603 17.6603V18.2419C44.7065 18.0002 44.6989 17.2751 44.281 16.5877C43.506 15.3413 41.9256 12.3501 40.5428 11.8818C39.5094 11.1642 37.2984 12.4936 36.7286 12.8713C36.8729 13.5134 37.4656 13.7475 37.8075 14.1856C38.6205 15.2658 39.9881 16.5197 40.0489 18.2344C39.3575 18.1739 36.9641 16.4215 36.645 15.9154C36.2499 15.2885 36.1359 14.0497 35.3989 13.7777C34.9354 13.5134 34.2364 14.4576 33.9021 14.6766C33.8109 16.2402 34.9354 16.3535 35.3153 17.4035C35.3837 17.4941 35.3457 17.4337 35.3989 17.5696C35.3381 17.6603 35.3685 17.5848 35.3153 17.7358C34.358 17.6376 32.4813 16.0816 32.2458 15.2583C32.0406 14.5331 33.1423 11.6779 33.4006 11.3002C33.3019 9.9934 31.7519 9.63083 30.673 9.32113C30.3387 9.22294 30.0044 9.30603 29.7536 9.15496C29.0242 9.19272 28.2948 9.84233 28.0897 10.3937C27.9377 10.8016 28.0517 11.1718 27.8389 11.4739C27.7553 11.5797 27.6794 11.6174 27.5882 11.7232C26.9272 11.6627 26.5625 11.3682 26.0914 11.1415C25.9318 10.5373 25.7115 9.81212 25.4304 9.32869C24.6022 9.11719 23.3257 8.90569 22.6115 9.41178C22.11 9.7668 21.9353 10.5373 21.3654 10.8167C21.0311 10.8696 20.6968 10.9225 20.3701 10.9829C19.6711 11.2397 19.4356 11.7912 19.2076 12.5465C19.1544 12.7202 18.9493 13.0753 19.0405 13.3699C19.2076 13.8684 20.127 14.1554 20.5373 14.4425C21.5478 15.1601 22.0948 16.4291 23.1206 17.0862C23.1282 17.9851 22.9458 18.2344 22.6191 18.7405C21.7377 18.7405 21.525 18.5516 21.0387 18.2419C20.8792 17.8265 21.0539 17.1466 20.8792 16.5877C20.7804 16.2931 20.4537 16.0891 20.2941 15.8474C19.6103 15.7039 18.7213 15.6284 18.2199 15.2734C17.65 14.8655 17.5285 14.1554 16.7231 13.9439C16.6699 13.8835 16.7231 13.9288 16.6395 13.9439C16.3888 14.0874 16.2824 14.4953 16.3888 14.9334C16.6015 15.8097 17.2093 16.4139 17.4677 17.1618C17.5361 17.3657 17.4677 17.5319 17.5589 17.6603C17.5437 18.0682 17.4677 18.1286 17.3917 18.4005H17.3081V18.3175C16.366 17.9624 16.5787 16.3837 15.5682 16.0061C14.6716 15.4924 12.9545 16.9956 11.9136 16.3309C11.2981 16.3233 11.0094 16.3762 10.6675 16.5801C10.7587 17.0787 10.8346 17.5696 10.9182 18.0682C11.055 18.3854 11.3969 18.6196 11.5033 18.9822C11.7996 20.0548 10.9486 21.709 10.7587 22.4417C10.827 22.5248 10.865 22.5928 10.9182 22.691C11.7616 22.6985 12.6885 22.7363 13.1596 22.3662C15.3174 22.3209 15.667 22.5701 16.4799 23.8542C18.7365 24.0808 20.2485 22.419 22.2088 23.2802C22.847 23.5521 23.0902 24.1186 23.5309 24.5945C23.4625 25.4103 21.9505 26.3016 21.3806 26.7321C21.3351 27.1098 21.4338 27.1778 21.6314 27.4724C22.6267 27.6914 23.8424 28.4468 25.1948 28.1371C25.8255 27.9936 26.7144 27.4799 27.5958 27.7217C28.5987 28.0011 29.123 29.1417 30.0044 29.6252C31.1668 30.1237 32.3293 30.6147 33.4918 31.1132C34.5783 31.7855 35.3001 32.9412 36.3943 33.6663C37.7163 34.5425 39.3727 35.2904 40.2996 36.5594C40.7099 37.1183 40.7555 37.8208 41.1278 38.4553C41.5837 39.2258 42.2523 39.7923 42.6246 40.6836C42.9209 41.4088 42.8449 42.7986 43.3692 43.3274C43.316 43.4709 43.354 43.4105 43.2856 43.486C42.7082 43.9317 41.88 43.3198 41.5457 42.9875C40.3452 41.8469 39.7602 40.0869 39.0536 38.4478C38.2254 38.2891 36.9793 38.5913 36.0675 38.3647C34.2364 37.9114 32.9068 36.8162 31.4252 36.0533C30.7945 35.7285 30.0575 35.6982 29.5105 35.313C28.3252 34.4519 28.0517 32.3671 27.1855 31.1812C26.5549 30.3201 25.1948 30.1237 24.4426 29.3683C24.1767 29.4137 24.1995 29.4363 24.0247 29.5345C24.1083 30.8715 25.4456 30.7733 26.0154 31.5967C26.646 32.4955 26.7904 34.0969 27.6794 34.7238C27.6338 35.1695 27.5198 35.1997 27.3451 35.4641C25.5139 35.8191 23.9564 35.2148 23.1966 34.2253C22.999 33.976 22.8698 33.6663 22.6191 33.485C22.3608 33.3113 22.0037 33.2811 21.7833 33.0772C21.5782 33.0847 21.4794 33.0847 21.373 33.1602L21.1223 33.2433C21.2363 33.9609 21.7681 34.1347 22.0265 34.6483C22.1176 35.0033 22.1936 35.3659 22.2772 35.7209C22.452 36.1137 23.8576 37.0126 24.359 37.1259C25.8027 37.4733 26.7448 36.4309 27.8389 36.7104C29.9436 37.2694 31.3644 38.9689 32.4889 40.5023C35.1558 40.4948 38.1722 40.5401 39.2967 42.0735C40.0565 43.1083 40.6187 45.533 41.6217 46.1977C42.9741 47.0966 44.9496 45.6992 46.6819 46.1977C47.6089 46.4621 47.8976 47.648 48.4219 48.3429C48.7866 48.8264 49.5616 48.985 49.9187 49.4911C51.6206 49.4458 51.4079 47.8142 52.9883 47.7613C53.3606 48.1541 53.9988 48.3278 54.2343 48.8415C54.713 49.8839 54.5838 51.2133 55.4804 51.81C56.0502 52.1877 56.7341 52.0366 57.5546 52.2179C57.9877 52.3161 59.3858 52.4747 59.796 52.2179L60.0468 52.1348C59.948 51.3795 59.059 50.8583 58.55 50.4806C57.889 49.9972 56.6277 48.4638 56.3086 47.6782C55.9591 46.8171 56.7948 45.7672 56.4757 45.2007C56.2478 44.5888 55.7007 44.9892 55.1537 44.7021C54.9029 44.5888 54.7282 44.2791 54.4851 44.128C54.128 41.2803 54.9561 40.1549 56.6429 39.0974C56.6125 37.1636 57.2507 36.4687 58.4664 35.7964C58.6108 35.026 58.2461 34.1271 58.4664 33.2282C58.6639 32.4351 59.2642 31.3096 58.9679 30.101C58.8007 29.4363 58.2081 28.8094 58.4664 27.7066C58.7247 26.5811 59.0514 25.0175 59.3706 23.9977C59.4313 23.5294 59.4845 23.0611 59.5377 22.5928C59.948 20.931 60.2671 20.6666 61.5284 19.8659C62.3566 19.3447 63.0784 18.8462 64.0965 18.4685C64.3776 18.3552 64.8715 18.0606 65.259 18.3023C66.1936 18.6951 65.7149 20.6213 66.1632 21.5202C66.6798 22.5172 68.1006 22.623 68.4957 23.8316C68.8149 24.8513 68.1386 26.0146 67.9107 26.6339C67.5308 27.8727 67.1357 29.1115 66.7558 30.3503C66.6418 31.1208 66.5355 31.8912 66.4215 32.6617C66.0644 33.1602 65.7073 33.6512 65.3426 34.1498C65.1678 34.1044 65.0387 34.0818 64.9323 33.9836C64.56 33.7192 64.3472 32.9336 64.5144 32.1707C64.636 31.6193 64.484 30.6525 64.6816 29.9424C64.8335 29.3759 65.1602 28.7112 65.3426 28.1296C65.4793 27.699 65.5097 26.853 65.259 26.566C65.0387 26.1052 64.7803 26.3242 64.2637 26.1505C63.8078 25.9919 63.162 25.5387 62.7669 25.2516C62.5465 25.3196 62.5237 25.3952 62.349 25.5009C62.3642 26.5811 62.4477 27.412 62.0223 28.054C61.498 28.0465 61.1789 27.9634 60.7762 27.8878C60.685 27.9558 60.761 27.9256 60.609 27.9709C60.1607 30.3956 61.7563 33.1451 62.7669 34.4897C63.5571 35.5472 64.7043 36.0457 64.6816 37.9568C64.5372 38.1078 64.5448 38.274 64.4308 38.4553C63.9825 38.8708 63.5419 39.2862 63.0936 39.6941C62.5009 39.6412 62.3946 39.3693 62.0147 39.12C62.0147 37.9643 62.0527 36.9824 61.9311 35.9777L61.6803 35.8946C60.7458 35.4867 60.3279 37.4658 60.2671 38.3722C59.8036 38.5762 59.2946 38.6744 58.9451 38.9463C58.8311 39.9509 60.0316 40.5703 60.8522 40.9253C60.9054 41.0688 60.8674 41.0084 60.9433 41.0915C60.9054 41.4239 60.8446 41.4843 60.7762 41.7487C60.6318 41.8015 60.6926 41.7638 60.609 41.8393C59.5985 41.6958 59.4541 40.8724 58.7855 40.4343C58.5652 40.3513 58.3372 40.2682 58.1245 40.1851C57.2507 40.3437 57.114 41.0613 56.6277 41.59C56.6125 42.0055 56.6125 42.3605 56.7872 42.5796C56.9392 42.7684 58.5196 43.0932 58.8615 43.2367C59.1654 44.8381 58.0105 46.0844 58.4512 47.8595C58.7627 49.1134 59.5377 50.3069 60.4419 50.9867C60.8142 51.2662 61.2549 51.5154 61.5208 51.9007C61.7183 51.8856 61.7487 51.8856 61.8475 51.8176C61.9387 51.7798 62.0147 51.7572 62.0982 51.7269C62.0603 50.0349 60.4343 49.0681 61.1029 47.0211C61.308 46.4168 61.7943 46.024 62.0982 45.5406C62.6757 44.619 63.048 43.6446 63.6786 42.8137C64.0053 42.504 64.3396 42.2019 64.674 41.8997C65.2362 41.1595 65.8364 40.5023 66.4063 39.7545C66.6874 39.543 66.9685 39.324 67.2421 39.0974C67.8575 38.2514 67.9563 36.9748 68.5641 36.1288C68.9212 35.804 69.2859 35.4641 69.643 35.1393C71.8541 32.1858 74.9996 28.968 78.6087 27.4648C79.9687 26.8983 82.7572 26.6944 84.2464 27.3062C84.7706 27.5177 86.0395 28.5148 86.8145 28.0465C87.3691 27.835 87.9998 25.4178 87.8098 24.5038C87.7262 24.0506 87.3539 23.3708 87.4831 22.8496C87.7262 21.8827 88.4784 21.4295 89.3066 21.0367L89.375 21.0443ZM51.0356 13.6947H51.2863C52.0689 15.2129 53.1022 16.6103 53.7784 18.2344C54.2115 19.2919 54.4547 20.5684 54.7738 21.6184C54.8042 21.9734 54.827 22.336 54.8574 22.691C55.2145 23.9147 55.7387 25.4254 55.526 26.9814H55.4424V27.0721C54.1735 26.9663 54.1204 25.6369 53.7025 24.6776C53.011 23.0913 52.5248 21.2709 52.0385 19.3976C51.7878 18.4534 51.9701 17.5772 51.7118 16.5952C51.4687 15.6586 50.952 14.7295 51.0432 13.7022L51.0356 13.6947ZM51.2103 34.7314V34.8976C51.0964 34.7238 51.2179 34.4141 51.1267 34.1573C51.0432 33.9383 50.7013 33.8023 50.6253 33.5832V31.8535C50.5189 31.4607 50.1922 30.9546 50.1238 30.5391C50.0554 30.0935 50.4429 29.7007 50.5341 29.3835C50.5645 28.8849 50.5873 28.3939 50.6253 27.8954C50.7848 27.3062 51.1875 26.7624 51.4535 26.2412H51.7802C52.0385 26.6113 52.5172 26.7926 52.7755 27.1551C52.9959 27.4648 53.0262 27.8803 53.277 28.1447C53.2466 29.9726 51.9397 30.1464 51.537 31.4456C51.2407 32.3973 51.727 33.9911 51.2103 34.7465V34.7314ZM47.3885 13.4529C48.6574 14.0044 49.516 15.9985 49.8807 17.411V18.9822C49.9263 19.1181 50.1618 19.3372 50.2074 19.4656V22.2755C50.3442 22.759 50.7089 23.7107 51.0356 24.0884C51.0204 24.3679 51.0052 24.4359 50.876 24.5869C50.7848 24.6474 50.8456 24.6171 50.7089 24.67C50.3442 23.8769 49.9871 23.0762 49.6299 22.2831C49.2728 21.7166 48.6878 21.2331 48.3839 20.6288C48.004 19.8886 48.2167 18.7933 47.8824 17.9926C47.6621 17.6301 47.4341 17.2751 47.2138 16.9125C46.8947 16.0665 47.077 14.1026 47.3809 13.4454L47.3885 13.4529ZM45.565 24.0204C45.8461 24.4963 46.2564 25.3574 46.7199 25.6671C46.9631 25.8333 47.2442 25.8333 47.4645 25.9919C47.7684 26.2185 48.5586 27.631 48.3839 28.3108C48.3155 28.5677 48.0344 28.8698 47.966 29.1342C47.6469 30.3579 49.1437 31.6344 48.6346 32.4351V32.6013H48.5434V32.5182C47.8824 32.2765 47.6089 31.0679 47.2214 30.5391C46.5756 29.6629 45.6486 28.8245 45.3143 27.6461V26.1581C45.2231 25.8484 44.9876 25.4254 44.8964 25.0855V24.0129C44.6761 23.2197 44.1366 22.7061 44.1518 21.6184C45.1547 21.8903 45.0788 23.2197 45.565 24.0129V24.0204ZM40.4972 20.795C41.8344 21.3464 43.9467 24.1715 43.7339 25.9088C43.6503 26.6037 44.1366 27.3591 43.6503 27.8878C43.5592 27.9558 43.6351 27.9256 43.4832 27.9709C42.7614 27.1778 42.541 25.9919 42.0775 24.9193C41.766 24.2244 41.295 23.4765 40.991 22.7816C40.7403 22.1773 40.7403 21.709 40.33 21.2936C40.3604 20.9839 40.3908 20.9839 40.4896 20.795H40.4972ZM35.1102 19.3145C36.2499 19.3825 36.7362 20.2663 37.3516 20.8781C38.2938 21.8223 39.1219 22.842 39.8437 24.0204C40.4896 25.0779 40.8239 26.3016 41.5001 27.3213C41.766 27.7141 43.1185 30.0859 42.9133 30.4485V30.6147C41.4393 30.3881 41.3405 28.3033 40.6719 27.2307C39.5322 25.4027 38.005 23.7787 36.7742 22.0414C36.1891 21.2105 35.87 20.2965 35.0342 19.7224C35.0646 19.5865 35.0874 19.4505 35.1178 19.3145H35.1102ZM31.2884 19.3145C32.1774 19.458 32.8916 20.3418 33.5298 20.8026C34.5024 21.49 35.832 22.4115 36.5158 23.3557C36.7818 23.7258 36.7666 24.2546 37.0173 24.67C37.4428 25.3952 38.1722 26.3922 38.8408 26.8983C39.0915 27.0872 39.4107 27.2231 39.5854 27.4724C39.707 27.6461 39.6918 27.8274 39.8361 27.9709C39.7982 28.4317 39.6614 28.5752 39.5018 28.8849C39.1447 28.9907 38.5977 29.1946 38.2634 28.8849C37.4276 28.5828 37.3288 27.0041 36.8501 26.3318C35.946 25.0401 34.6239 24.0431 33.6894 22.7892C32.8992 21.709 32.3673 20.4476 31.2048 19.73C31.2352 19.594 31.258 19.458 31.2884 19.3221V19.3145ZM26.9804 14.6086C26.5777 14.0874 26.0534 13.8155 26.3953 13.2037C28.1201 13.3472 28.5835 15.1676 29.3813 16.2629C29.6928 16.5348 29.9968 16.8143 30.3007 17.0862C30.4146 17.2448 30.4374 17.4412 30.5514 17.5848C30.4982 17.7283 30.5362 17.6678 30.4678 17.7509C30.3767 17.8114 30.4374 17.7811 30.3007 17.834C29.123 16.8521 27.9073 15.8474 26.9804 14.6162V14.6086ZM36.022 28.8774C34.7379 28.8169 34.0541 27.7443 33.3627 27.0645C32.3749 26.0825 31.4784 25.1383 30.6198 24.0129C30.1487 23.5974 29.6852 23.182 29.2142 22.7741C28.895 22.3133 28.8115 21.7166 28.3784 21.3691C28.3936 21.1727 28.3936 21.1425 28.4696 21.0443C28.5 20.9537 28.5227 20.8781 28.5531 20.795C29.9664 20.8857 30.4906 22.3662 31.372 23.0233C33.0739 24.2772 36.3715 25.9919 36.022 28.8774ZM46.3096 44.1431V44.3093C44.9724 44.0147 43.7035 42.4587 44.0758 40.7516C45.2307 41.2199 45.603 42.0433 46.0589 43.2292C46.1729 43.5086 46.492 43.8108 46.3096 44.1431ZM51.537 46.7794C51.4307 46.8322 51.2863 46.8851 51.2103 46.9455C48.7714 46.9304 47.8216 43.2141 46.8111 41.59C45.9981 40.2757 44.4101 39.4599 43.7415 38.206C43.2248 37.2241 43.3692 35.8644 42.4954 35.2375C42.1459 34.9882 41.7508 34.9429 41.3405 34.7389C40.8163 34.4821 40.3984 34.044 39.9273 33.7494C39.4562 33.4699 38.8712 33.402 38.4305 33.0923C37.8531 32.4804 37.2756 31.8837 36.6906 31.2794C36.4626 30.8866 36.531 30.4712 36.1891 30.1992C36.2043 29.8518 36.2499 29.8291 36.3563 29.6252C37.9366 30.2899 39.7374 30.8186 41.1658 31.6873C42.07 32.2387 43.0729 32.911 44.0758 33.3415C45.6334 34.0138 47.267 34.4595 48.551 35.4037C48.8322 35.6152 48.9233 36.0231 49.1361 36.3176C49.402 36.6802 49.8807 36.9068 50.1314 37.3072C50.5569 37.987 50.6177 38.8028 50.9596 39.6186C51.8106 41.6807 52.7147 44.3395 51.537 46.7869V46.7794ZM57.1823 32.3445C56.848 33.9383 55.8603 35.9249 54.3559 36.3856C54.2723 36.446 54.3407 36.4158 54.1963 36.4687C53.786 35.6529 53.1174 34.7616 52.8591 33.9156C52.6387 33.1829 53.2238 32.6239 53.4441 32.2614C53.9 31.5211 54.1052 30.7204 54.599 30.0406C55.0169 29.4665 55.6248 29.1115 56.0123 28.4695H56.263C56.3998 28.7792 56.5365 29.0813 56.6809 29.3835V30.7884C56.7948 31.219 57.3039 31.7402 57.1823 32.352V32.3445ZM58.9299 17.5772V17.6603C58.7019 17.5923 58.6791 17.5168 58.512 17.411C58.4588 17.1693 58.3144 16.9427 58.2613 16.7539C57.889 15.3564 58.7779 13.1961 59.2566 12.5465C59.5377 12.1537 59.9252 11.9422 60.1608 11.4739H60.4115V11.557H60.5027C60.4571 13.2188 59.7429 16.6859 58.9299 17.5772ZM64.0661 13.9439C63.899 14.518 63.9521 15.1752 63.6482 15.5982C62.9568 16.5801 61.6652 17.0636 60.9965 18.0757H60.5786C60.6622 16.2327 62.1362 15.5528 62.7365 14.1932C63.162 13.2263 63.5874 12.1084 63.8914 11.1415C63.9825 10.3711 64.0585 9.60062 64.1421 8.83015C64.2637 8.37694 64.5144 8.01436 64.7271 7.67445H64.8867C65.2818 8.79238 64.408 12.7958 64.0585 13.9439H64.0661ZM70.3724 31.1057C69.6278 32.1556 69.1188 33.2962 68.3818 34.4066C67.9335 35.0637 67.2573 35.4565 66.885 36.2194H66.5583C66.6494 34.5577 67.7511 33.5077 68.2982 32.2614C68.906 30.8942 69.2479 29.459 69.871 28.0616C70.0609 27.6386 70.4104 27.3062 70.6156 26.9059C71.4438 26.9436 71.4666 27.3818 71.9376 27.7292C71.8465 29.2248 71.0183 30.1766 70.3648 31.1132L70.3724 31.1057Z" fill="#69948C"/>
<path d="M84.2538 51.7874H15.834V52.369H84.2538V51.7874Z" fill="#B4BDBF"/>
</svg>
